<svg width="74" height="78" viewBox="0 0 74 78" fill="none" xmlns="http://www.w3.org/2000/svg">
<path d="M73.9998 77.877H55.1094L40.2179 55.6351L50.2724 38.8776L73.9998 77.877Z" fill="#2388FF"/>
<path d="M73.9998 0.000102997H55.1094L40.2179 22.242L50.2724 38.9995L73.9998 0.000102997Z" fill="#2388FF"/>
<path d="M36.0164 62C31.4928 62 27.3988 61.4908 24.135 59.6585C20.8902 57.8071 18.3899 55.1922 16.6339 51.8139C14.878 48.4165 14 44.3988 14 39.7607C14 35.2372 14.878 31.2672 16.6339 27.8507C18.3899 24.4342 20.8616 21.7716 24.0491 19.863C27.2556 17.9543 31.0157 17 35.3292 17C38.2304 17 40.9312 17.4676 43.4315 18.4029C45.9509 19.319 48.1459 20.7028 50.0164 22.5542C51.9059 24.4056 53.3756 26.7342 54.4254 29.5399C55.4751 32.3265 56 35.5903 56 39.3313V42.681H18.8671V35.1227H44.5194C44.5194 33.3667 44.1377 31.8112 43.3742 30.456C42.6108 29.1009 41.5515 28.0416 40.1963 27.2781C38.8603 26.4956 37.3047 26.1043 35.5296 26.1043C33.6783 26.1043 32.0368 26.5337 30.6053 27.3926C29.1929 28.2324 28.0859 29.3681 27.2842 30.7996C26.4826 32.212 26.0723 33.7866 26.0532 35.5235V42.7096C26.0532 44.8855 26.454 46.7655 27.2556 48.3497C28.0763 49.9339 29.2311 51.1554 30.7198 52.0143C32.2086 52.8732 33.9741 53.3027 36.0164 53.3027C37.3715 53.3027 38.5 53.3027 40 53.3027C42 53.5 42.3438 53.3027 44.1562 53.3027C46.6562 53.3027 46.5 53.3027 49 53.3027H64.1562C64.1562 56 64.1562 59.5 64.1562 61.8438C57.5 62 55.4254 62 49 62C43.4315 62 39.6428 62 36.0164 62Z" fill="white"/>
<path d="M43.8364 38.9994L19.1569 0H0.457024L24.4127 38.9994L0 77.9988H18.8903L43.8364 38.9994Z" fill="#2388FF"/>
</svg>
