<svg width="48" height="12" viewBox="0 0 48 12" fill="none" xmlns="http://www.w3.org/2000/svg">
<path d="M36.6029 2.90909V4.72727H31.3472V2.90909H36.6029ZM32.5404 0.818182H34.9608V8.95455C34.9608 9.17803 34.9949 9.35227 35.0631 9.47727C35.1313 9.59849 35.226 9.68371 35.3472 9.73295C35.4722 9.7822 35.6161 9.80682 35.779 9.80682C35.8926 9.80682 36.1406 9.82576 36.2543 9.80682C36.2543 9.85121 37.5999 9.81818 37.6605 9.80682L36.7619 11.5284C36.6407 11.5663 36.5169 11.7064 36.2972 11.7557C36.0775 11.8087 35.7638 11.7443 35.4494 11.7557C34.8661 11.7784 34.3547 11.7008 33.9154 11.5227C33.4797 11.3447 33.1407 11.0682 32.8983 10.6932C32.6559 10.3182 32.5366 9.8447 32.5404 9.27273V0.818182Z" fill="black"/>
<path d="M26.0281 6.59091V11.6364H23.6077V2.90909H25.9145V4.44886H26.0168C26.2099 3.94129 26.5338 3.53977 26.9883 3.24432C27.4429 2.94508 27.994 2.79546 28.6418 2.79546C29.2478 2.79546 29.7762 2.92803 30.227 3.19318C30.6777 3.45833 31.0281 3.83712 31.2781 4.32955C31.5281 4.81818 31.6531 5.40152 31.6531 6.07955V11.6364H29.2327V6.51136C29.2365 5.97727 29.1001 5.56061 28.8236 5.26136C28.5471 4.95833 28.1664 4.80682 27.6815 4.80682C27.3558 4.80682 27.0679 4.8769 26.8179 5.01705C26.5717 5.1572 26.3785 5.36174 26.2383 5.63068C26.102 5.89583 26.0319 6.21591 26.0281 6.59091Z" fill="black"/>
<path d="M19.6225 11.8068C18.7247 11.8068 17.952 11.625 17.3043 11.2614C16.6603 10.8939 16.1641 10.375 15.8156 9.70455C15.4671 9.0303 15.2929 8.23296 15.2929 7.3125C15.2929 6.41477 15.4671 5.6269 15.8156 4.94886C16.1641 4.27083 16.6546 3.74243 17.2872 3.36364C17.9236 2.98485 18.6698 2.79546 19.5259 2.79546C20.1016 2.79546 20.6376 2.88826 21.1338 3.07386C21.6338 3.25568 22.0694 3.5303 22.4406 3.89773C22.8156 4.26515 23.1073 4.72727 23.3156 5.28409C23.524 5.83712 23.6281 6.48485 23.6281 7.22727V7.89205H16.2588V6.39205H21.3497C21.3497 6.04356 21.274 5.73485 21.1225 5.46591C20.9709 5.19697 20.7607 4.98674 20.4918 4.83523C20.2266 4.67993 19.9179 4.60227 19.5656 4.60227C19.1982 4.60227 18.8725 4.6875 18.5884 4.85795C18.3081 5.02462 18.0884 5.25 17.9293 5.53409C17.7702 5.81439 17.6887 6.12689 17.685 6.47159V7.89773C17.685 8.32955 17.7645 8.70265 17.9236 9.01705C18.0865 9.33144 18.3156 9.57386 18.6111 9.74432C18.9065 9.91477 19.2569 10 19.6622 10C19.9312 10 20.1774 9.96212 20.4009 9.88636C20.6243 9.81061 20.8156 9.69697 20.9747 9.54546C21.1338 9.39394 21.255 9.20833 21.3384 8.98864L23.577 9.13636C23.4634 9.67424 23.2304 10.1439 22.8781 10.5455C22.5296 10.9432 22.0789 11.2538 21.5259 11.4773C20.9766 11.697 20.3422 11.8068 19.6225 11.8068Z" fill="black"/>
<path d="M16.2878 2.90909L13.2367 11.6364H10.5094L7.45825 2.90909H10.0151L11.8276 9.15341H11.9185L13.7253 2.90909H16.2878Z" fill="black"/>
<path d="M0 11.6364V0H7.84091V2.02841H2.46023V4.80114H7.4375V6.82955H2.46023V9.60795H7.86364V11.6364H0Z" fill="black"/>
<path d="M42.5284 5.95455L38.8466 0.136364H36.0568L39.6307 5.95455L35.9886 11.7727H38.8068L42.5284 5.95455Z" fill="black"/>
<path d="M47.0284 11.7545H44.2103L41.9886 8.43636L43.4886 5.93636L47.0284 11.7545Z" fill="black"/>
<path d="M47.0284 0.136364H44.2103L41.9886 3.45455L43.4886 5.95455L47.0284 0.136364Z" fill="black"/>
</svg>
